<svg width="60" height="60" viewBox="0 0 60 60" fill="none" xmlns="http://www.w3.org/2000/svg">
<rect width="60" height="60" fill="white" fill-opacity="0.01" style="mix-blend-mode:multiply"/>
<path d="M30.9375 26.25H37.5V22.5H33.75V20.625H30V22.5953C28.8624 22.8281 27.8518 23.475 27.1638 24.4104C26.4759 25.3459 26.1597 26.5034 26.2764 27.6587C26.3931 28.814 26.9345 29.8848 27.7956 30.6638C28.6567 31.4427 29.7763 31.8743 30.9375 31.875H32.8125C33.0611 31.875 33.2996 31.9738 33.4754 32.1496C33.6512 32.3254 33.75 32.5639 33.75 32.8125C33.75 33.0611 33.6512 33.2996 33.4754 33.4754C33.2996 33.6512 33.0611 33.75 32.8125 33.75H26.25V37.5H30V39.375H33.75V37.4048C34.8876 37.1719 35.8982 36.525 36.5862 35.5896C37.2741 34.6541 37.5903 33.4966 37.4736 32.3413C37.3569 31.186 36.8155 30.1152 35.9544 29.3362C35.0933 28.5573 33.9737 28.1257 32.8125 28.125H30.9375C30.6889 28.125 30.4504 28.0262 30.2746 27.8504C30.0988 27.6746 30 27.4361 30 27.1875C30 26.9389 30.0988 26.7004 30.2746 26.5246C30.4504 26.3488 30.6889 26.25 30.9375 26.25Z" fill="#3176B1"/>
<path d="M54.375 24.375H50.5875C50.5335 22.8938 50.1761 21.4394 49.5376 20.1018C48.899 18.7642 47.9928 17.5718 46.875 16.5984V9.375C46.875 9.02679 46.778 8.68546 46.595 8.38926C46.4119 8.09305 46.15 7.85367 45.8385 7.69795C45.5271 7.54223 45.1784 7.47631 44.8316 7.50758C44.4848 7.53885 44.1536 7.66607 43.875 7.875L36.8747 13.125H28.125C17.7947 13.125 10.3811 19.2022 9.47156 28.125H9.375C8.87786 28.1246 8.4012 27.9269 8.04967 27.5753C7.69813 27.2238 7.50045 26.7471 7.5 26.25V22.5H3.75V26.25C3.75164 27.7413 4.3448 29.1711 5.39933 30.2257C6.45387 31.2802 7.88366 31.8734 9.375 31.875H9.50625C9.77831 34.3335 10.5774 36.7044 11.8491 38.8259C13.1207 40.9475 14.835 42.7698 16.875 44.1686V50.625C16.875 51.1223 17.0725 51.5992 17.4242 51.9508C17.7758 52.3025 18.2527 52.5 18.75 52.5H26.25C26.7473 52.5 27.2242 52.3025 27.5758 51.9508C27.9275 51.5992 28.125 51.1223 28.125 50.625V46.875H33.75V50.625C33.75 51.1223 33.9475 51.5992 34.2992 51.9508C34.6508 52.3025 35.1277 52.5 35.625 52.5H43.125C43.6223 52.5 44.0992 52.3025 44.4508 51.9508C44.8025 51.5992 45 51.1223 45 50.625V44.3197C46.3544 43.6776 47.5386 42.7256 48.4568 41.5409C49.375 40.3561 50.0014 38.9718 50.2853 37.5H54.375C54.8723 37.5 55.3492 37.3025 55.7008 36.9508C56.0525 36.5992 56.25 36.1223 56.25 35.625V26.25C56.25 25.7527 56.0525 25.2758 55.7008 24.9242C55.3492 24.5725 54.8723 24.375 54.375 24.375ZM52.5 33.75H47.1075C46.5353 38.9117 45.5634 40.2851 41.25 41.8414V48.75H37.5V43.125H24.375V48.75H20.625V41.9586C18.3673 40.8845 16.4627 39.189 15.1343 37.071C13.8059 34.9529 13.1089 32.5001 13.125 30C13.125 20.9336 20.6589 16.875 28.125 16.875H38.1253L43.125 13.125V18.3308C47.6591 21.8169 46.7111 24.3045 46.9093 28.125H52.5V33.75Z" fill="#3176B1"/>
</svg>
